# xmcd
#
# Track frame offsets:
#	150
#	14326
#	39584
#	61355
#	86299
#	108557
#	134803
#	155389
#	180728
#	198514
#
# Disc length: 2988 seconds
# Revision: 0
# Processed by: cddbd v1.5.2PL0 Copyright (c) Steve Scherf et al.
# Submitted via: dBpowerAMP V12.0
#
DISCID=860baa0a
DTITLE=Fred Sanders - Believe
DYEAR=2011
DGENRE=Blues
TTITLE0=Stop Foolin' Around
TTITLE1=I Believe
TTITLE2=I Think About You Baby
TTITLE3=Time Out
TTITLE4=Let's Dance
TTITLE5=Don't Know What
TTITLE6=Blue Bolero
TTITLE7=Wake Up
TTITLE8=Hey Come On "Little Girl"
TTITLE9=Red Eye Gravy
EXTD=
EXTT0=
EXTT1=
EXTT2=
EXTT3=
EXTT4=
EXTT5=
EXTT6=
EXTT7=
EXTT8=
EXTT9=
PLAYORDER=
